<svg width="67" height="67" viewBox="0 0 67 67" fill="none" xmlns="http://www.w3.org/2000/svg">
<path d="M5.70156 19.3694C8.38129 22.2076 11.3744 24.6342 14.6809 26.6492C18.0089 28.6641 21.5531 30.2024 25.3134 31.264C29.0952 32.304 32.9852 32.824 36.9832 32.824C41.716 32.8023 46.2759 32.0223 50.6628 30.484C55.0715 28.9457 59.1019 26.7358 62.7541 23.8542L60.9064 20.2144C57.5567 23.0092 53.8396 25.1542 49.7552 26.6492C45.6707 28.1224 41.4134 28.8699 36.9832 28.8916C31.2347 28.9132 25.7888 27.7325 20.6455 25.3492C15.5237 22.9659 11.1475 19.6293 7.51687 15.3395L5.70156 19.3694ZM2.23302 37.9263C6.44713 41.5228 11.0394 44.3936 16.0099 46.5385C21.002 48.6618 26.1562 50.0268 31.4725 50.6334C36.8103 51.24 42.1266 51.0667 47.4212 50.1134C52.7159 49.1601 57.7944 47.4052 62.6569 44.8486L62.5596 40.3962C57.8485 43.1261 52.878 45.0219 47.6481 46.0836C42.4183 47.1235 37.1669 47.3402 31.8939 46.7335C26.6424 46.1268 21.5639 44.7186 16.6582 42.5087C11.7526 40.2771 7.26834 37.2763 3.20551 33.5065L2.23302 37.9263ZM18.3114 60.253L22.947 61.3255C21.8664 58.7039 21.0344 56.0174 20.4509 53.2658C19.8675 50.5142 19.5541 47.7193 19.5109 44.8811C19.2083 39.4862 19.7378 34.2431 21.0993 29.1516C22.4823 24.0601 24.6002 19.3044 27.4528 14.8845C30.3055 10.443 33.7956 6.53228 37.9233 3.15238L33.774 1.52744C29.6896 5.16735 26.2426 9.30555 23.4332 13.942C20.6239 18.5569 18.5384 23.4968 17.1769 28.7616C15.837 34.0047 15.3076 39.3996 15.5885 44.9461C15.6318 47.546 15.8802 50.1243 16.3341 52.6809C16.7879 55.2374 17.447 57.7615 18.3114 60.253ZM39.6738 63.4705L43.3368 61.8455C40.3113 57.5557 37.9881 52.9191 36.3673 47.9359C34.7681 42.9311 33.9685 37.7747 33.9685 32.4665C33.9685 27.4183 34.6817 22.5326 36.108 17.8095C37.5343 13.0862 39.6198 8.67726 42.3643 4.5824L38.5392 3.21739C35.773 7.57227 33.666 12.2304 32.2181 17.1919C30.7701 22.1534 30.0461 27.2449 30.0461 32.4665C30.0461 38.0779 30.8673 43.5161 32.5098 48.7809C34.1522 54.0241 36.5402 58.9206 39.6738 63.4705ZM58.7669 51.3809L61.3926 48.391C57.762 46.311 54.6177 43.7002 51.9595 40.5587C49.323 37.4171 47.2699 33.9181 45.8004 30.0616C44.3525 26.205 43.5961 22.1534 43.5313 17.907C43.5097 15.632 43.6934 13.3787 44.0823 11.1472C44.4714 8.91553 45.0765 6.7598 45.8977 4.67982L42.105 3.60741C41.2406 5.88232 40.603 8.22223 40.1924 10.6271C39.7818 13.0104 39.5873 15.4478 39.609 17.9394C39.6738 22.5543 40.4842 26.9742 42.0402 31.199C43.5961 35.4022 45.8004 39.2371 48.6531 42.7037C51.5057 46.1485 54.8769 49.0409 58.7669 51.3809ZM19.4784 32.434C20.8615 32.434 22.0393 31.9357 23.0118 30.939C24.006 29.9424 24.503 28.7399 24.503 27.3316C24.503 25.9234 24.006 24.7317 23.0118 23.7567C22.0393 22.7601 20.8615 22.2618 19.4784 22.2618C18.0522 22.2618 16.8419 22.7601 15.8478 23.7567C14.8754 24.7317 14.3891 25.9234 14.3891 27.3316C14.3891 28.7399 14.8754 29.9424 15.8478 30.939C16.8419 31.9357 18.0522 32.434 19.4784 32.434ZM44.3093 35.1314C45.6707 35.1314 46.8377 34.6439 47.8102 33.6689C48.7827 32.6723 49.269 31.4807 49.269 30.0941C49.269 28.7291 48.7827 27.5591 47.8102 26.5842C46.8377 25.6092 45.6707 25.1217 44.3093 25.1217C42.9046 25.1217 41.716 25.6092 40.7435 26.5842C39.771 27.5591 39.2848 28.7291 39.2848 30.0941C39.2848 31.4807 39.771 32.6723 40.7435 33.6689C41.716 34.6439 42.9046 35.1314 44.3093 35.1314ZM34.6493 53.9158C36.0323 53.9158 37.2102 53.4283 38.1826 52.4533C39.1767 51.4567 39.6738 50.2542 39.6738 48.8459C39.6738 47.4377 39.1767 46.246 38.1826 45.271C37.2102 44.2744 36.0323 43.7761 34.6493 43.7761C33.2229 43.7761 32.0127 44.2744 31.0186 45.271C30.0461 46.246 29.5599 47.4377 29.5599 48.8459C29.5599 50.2542 30.0461 51.4567 31.0186 52.4533C32.0127 53.4283 33.2229 53.9158 34.6493 53.9158ZM33.5471 66.2979C38.0638 66.2979 42.3102 65.4312 46.2867 63.6979C50.2847 61.9647 53.8072 59.5706 56.8544 56.5157C59.9015 53.4608 62.2895 49.9401 64.0183 45.9536C65.7472 41.9454 66.6116 37.6772 66.6116 33.1489C66.6116 28.6208 65.7472 24.3634 64.0183 20.3769C62.2895 16.3686 59.9015 12.8371 56.8544 9.78217C53.8072 6.72729 50.2847 4.33321 46.2867 2.59993C42.2886 0.866643 38.0314 0 33.5147 0C28.998 0 24.7407 0.866643 20.7426 2.59993C16.7663 4.33321 13.2546 6.72729 10.2074 9.78217C7.1819 12.8371 4.80471 16.3686 3.07584 20.3769C1.34698 24.3634 0.482544 28.6208 0.482544 33.1489C0.482544 37.6772 1.34698 41.9454 3.07584 45.9536C4.80471 49.9401 7.1927 53.4608 10.2398 56.5157C13.287 59.5706 16.7987 61.9647 20.7751 63.6979C24.7731 65.4312 29.0304 66.2979 33.5471 66.2979ZM33.5471 61.878C29.6356 61.878 25.9509 61.1197 22.4931 59.6031C19.0355 58.1082 15.9883 56.039 13.3517 53.3958C10.7153 50.7526 8.64062 47.6977 7.12787 44.2311C5.63673 40.7645 4.89115 37.0705 4.89115 33.1489C4.89115 29.2274 5.63673 25.5333 7.12787 22.0668C8.64062 18.6003 10.7045 15.5453 13.3193 12.9021C15.9559 10.2589 19.003 8.18973 22.4607 6.69479C25.9185 5.17819 29.6031 4.41989 33.5147 4.41989C37.4262 4.41989 41.1109 5.17819 44.5686 6.69479C48.0263 8.18973 51.0735 10.2589 53.71 12.9021C56.3681 15.5453 58.4428 18.6003 59.9339 22.0668C61.4466 25.5333 62.203 29.2274 62.203 33.1489C62.203 37.0705 61.4466 40.7645 59.9339 44.2311C58.4428 47.6977 56.3789 50.7526 53.7424 53.3958C51.1059 56.039 48.0587 58.1082 44.6011 59.6031C41.1433 61.1197 37.4586 61.878 33.5471 61.878Z" fill="url(#paint0_linear_6_3272)"/>
<defs>
<linearGradient id="paint0_linear_6_3272" x1="33.5471" y1="0" x2="33.5471" y2="66.2979" gradientUnits="userSpaceOnUse">
<stop stop-color="#1F5AFF"/>
<stop offset="1" stop-color="#1F5AFF"/>
</linearGradient>
</defs>
</svg>
